
<svg xmlns="http://www.w3.org/2000/svg" width="24px"  height="24px" viewBox="0 0 24 24">
    <rect width="24" height="24" fill="#aa0000" />
   
      <path d="M3 2h18a1,1,90,0,1,1,1v3a1,1,90,0,1,-1,1h-18a1,1,90,0,1,-1,-1v-3a1,1,90,0,1,1,-1z  M4 4h12v1H4z M19 4h1v1h-1z" fill-rule="evenodd" fill="#000" />
    <path d="M3 9h18a1,1,90,0,1,1,1v3a1,1,90,0,1,-1,1h-18a1,1,90,0,1,-1,-1v-3a1,1,90,0,1,1,-1z M4 11h10v1H4z M19 11h1v1h-1z" fill-rule="evenodd" fill="#000" />
    <path d="M3 16h18a1,1,90,0,1,1,1v3a1,1,90,0,1,-1,1h-18a1,1,90,0,1,-1,-1v-3a1,1,90,0,1,1,-1z M4 18h14v1H4z M19 18h1v1h-1z" fill-rule="evenodd" fill="#000" />

  </svg>